<?xml version="1.0" encoding="utf-8"?>
<!-- Generator: Adobe Illustrator 16.0.0, SVG Export Plug-In . SVG Version: 6.00 Build 0)  -->
<!DOCTYPE svg PUBLIC "-//W3C//DTD SVG 1.1//EN" "http://www.w3.org/Graphics/SVG/1.1/DTD/svg11.dtd">
<svg version="1.1" id="Ebene_1" xmlns="http://www.w3.org/2000/svg" xmlns:xlink="http://www.w3.org/1999/xlink" x="0px" y="0px"
	 width="154.148px" height="154.147px" viewBox="0 0 154.148 154.147" enable-background="new 0 0 154.148 154.147"
	 xml:space="preserve">
<g>
	<g>
		<path fill="#3E2723" d="M135.374,43.787L111.95,30.264l16.494-16.493c2.877,1.529,6.531,1.083,8.955-1.341
			c2.975-2.974,2.975-7.795,0-10.769c-2.975-2.974-7.795-2.974-10.77,0c-2.424,2.425-2.871,6.077-1.34,8.956l-17.34,17.338
			L80.499,12.105c-2.633-1.521-5.879-1.521-8.512,0L44.536,27.954l-17.34-17.338c1.531-2.878,1.084-6.531-1.34-8.956
			c-2.975-2.974-7.797-2.974-10.77,0c-2.975,2.974-2.975,7.795,0,10.769c2.424,2.425,6.076,2.871,8.955,1.341l16.492,16.493
			L17.112,43.787c-2.633,1.521-4.256,4.331-4.256,7.372v63.364c0,3.041,1.623,5.852,4.256,7.372l54.875,31.683
			c2.633,1.52,5.879,1.52,8.512,0l54.875-31.683c2.633-1.521,4.256-4.331,4.256-7.372V51.159
			C139.629,48.118,138.006,45.308,135.374,43.787z"/>
		<g>
			<path fill="#FDD835" d="M129.252,104.962H23.233c-1.719,0-3.113,1.394-3.113,3.113v3.782c0,2.095,1.119,4.031,2.934,5.079
				l5.82,3.361c1.738,1.003,3.709,1.531,5.717,1.531h83.305c2.008,0,3.979-0.528,5.717-1.531l5.82-3.361
				c1.814-1.048,2.934-2.984,2.934-5.079v-3.782C132.366,106.356,130.971,104.962,129.252,104.962z"/>
			<path fill="#FDD835" d="M102.944,130.78H49.542c-0.688,0-0.932,0.911-0.336,1.256l24.775,14.304c1.4,0.808,3.123,0.808,4.523,0
				l24.775-14.304C103.875,131.691,103.631,130.78,102.944,130.78z"/>
			<path fill="#FDD835" d="M129.252,79.146H23.233c-1.719,0-3.113,1.394-3.113,3.112v10.642c0,1.719,1.395,3.112,3.113,3.112h106.02
				c1.719,0,3.113-1.393,3.113-3.112V82.258C132.366,80.539,130.971,79.146,129.252,79.146z"/>
		</g>
		<g>
			<ellipse fill="#FFFFFF" cx="57.258" cy="41.941" rx="6.119" ry="7.66"/>
			<ellipse fill="#FFFFFF" cx="95.225" cy="41.941" rx="6.119" ry="7.66"/>
		</g>
	</g>
</g>
</svg>
